/* XPM */
static char *freeimage[] = {
/* width height num_colors chars_per_pixel */
"16 16 88 1",
/* colors */
"  c #fcfefe",
". c #68d1ec",
"X c #12b8e2",
"o c #11b8e2",
"O c #17b9e2",
"+ c #16b9e2",
"@ c #64d0ec",
"# c #00b3e0",
"$ c #00b2e0",
"% c #09b5e1",
"& c #00b5e1",
"* c #00b1df",
"= c #00a3da",
"- c #00a8db",
"; c #00a9db",
": c #00addd",
"> c #00a6db",
", c #43ceec",
"< c #b4e8f6",
"1 c #beebf7",
"2 c #d6f2f9",
"3 c #ddf3f9",
"4 c #dbf2f9",
"5 c #dff3fa",
"6 c #aae3f3",
"7 c #00abdd",
"8 c #11b6e1",
"9 c #00a7da",
"0 c #b7e7f5",
"q c #ffffff",
"w c #dbf2fa",
"e c #c0edf8",
"r c #cbeff9",
"t c #c9eff9",
"y c #d7f1fa",
"u c #60d6ee",
"i c #00a1d9",
"p c #00cdea",
"a c #6dd9ef",
"s c #0096d3",
"d c #00a2d9",
"f c #00a5da",
"g c #00abdc",
"h c #a1e4f4",
"j c #00b5e0",
"k c #009ed7",
"l c #00afde",
"z c #00aede",
"x c #edf8fc",
"c c #fefefe",
"v c #fbfeff",
"b c #fffdfe",
"n c #fffdff",
"m c #86dcf1",
"M c #00a3d9",
"N c #00bde4",
"B c #ddf4fa",
"V c #94dff1",
"C c #a3e7f5",
"Z c #a5e6f4",
"A c #a9e5f4",
"S c #00c6e8",
"D c #00a8dc",
"F c #57d6ee",
"G c #fffffe",
"H c #00c2e6",
"J c #008acf",
"K c #009dd7",
"L c #009cd7",
"P c #009bd6",
"I c #00a7db",
"U c #00b6e1",
"Y c #c3edf8",
"T c #00c7e8",
"R c #00aadc",
"E c #00b6e0",
"W c #00b7e1",
"Q c #3fd0ec",
"! c #bfe9f6",
"~ c #4dd9ef",
"^ c #33d6ee",
"/ c #47d9ef",
"( c #5ddbf0",
") c #58dbef",
"_ c #6bddf1",
"` c #00c4e7",
"' c #00b3e1",
"] c #00a6da",
/* pixels */
" .XoO++++++OoX. ",
"@#####$$$$$$$$#@",
"%##&*=-;;;;;;:&%",
"o#&:>,<123445678",
"+#*90qqqwertyu9+",
"+#ipqqqasidf-g&+",
"+#dhqqqjkll####+",
"+zlxqcqvbnqmM##+",
"+9NqqcBVCZASD##+",
"+dFqGqHJKLPIU##+",
"+fYqGqTREjjW###+",
"+fQqqqqqqqq!M##+",
"o#-T~^/())_`R##o",
"%'#]dMMMMMd7j##%",
"@##############@",
" .XoO++++++OoX. "
};
