/* XPM */
static char *freeimage[] = {
/* width height num_colors chars_per_pixel */
"32 32 117 2",
/* colors */
"   c #ffffff",
" . c #f0fafd",
" X c #7cd7ef",
" o c #2cc0e5",
" O c #10b7e1",
" + c #13b8e2",
" @ c #15b9e2",
" # c #d8f3fa",
" $ c #21bce4",
" % c #00b3e0",
" & c #f2fbfd",
" * c #7ad7ee",
" = c #25bee4",
" - c #00b5e1",
" ; c #00a8db",
" : c #00a2d9",
" > c #00a3d9",
" , c #00a9db",
" < c #00b5e0",
" 1 c #00a8dc",
" 2 c #00a3da",
" 3 c #00bbe3",
" 4 c #4ad7ef",
" 5 c #72ddf1",
" 6 c #6cdcf0",
" 7 c #70dcf0",
" 8 c #49d4ee",
" 9 c #00afde",
" 0 c #00b1e0",
" q c #00b2e0",
" w c #aae3f4",
" e c #b3eaf6",
" r c #00a1d9",
" t c #00b9e2",
" y c #f7fcfe",
" u c #fefefe",
" i c #00c6e8",
" p c #00b3e1",
" a c #00aadc",
" s c #00b1df",
" d c #fcfdfe",
" f c #a3e3f4",
" g c #13d3ed",
" h c #2ad6ee",
" j c #33d6ee",
" k c #46d8ef",
" l c #3fd8ee",
" z c #8fe3f3",
" x c #3cd0ec",
" c c #0099d5",
" v c #00a1d8",
" b c #00addd",
" n c #00b2df",
" m c #fcfdfd",
" M c #e3f5fb",
" N c #00a7da",
" B c #00a6da",
" V c #00c1e5",
" C c #7edff1",
" Z c #009fd8",
" A c #00b5df",
" S c #54d8ef",
" D c #fffefe",
" F c #fffffe",
" G c #00c2e6",
" H c #009ad6",
" J c #00acdd",
" K c #00abdd",
" L c #c0edf8",
" P c #c0edf7",
" I c #bdebf7",
" U c #c3edf8",
" Y c #d6f0fa",
" T c #00cae9",
" R c #00abdc",
" E c #feffff",
" W c #00bee4",
" Q c #00a7db",
" ! c #00c8e8",
" ~ c #e3f6fb",
" ^ c #00a9dd",
" / c #7addf1",
" ( c #56d4ed",
" ) c #00b8e1",
" _ c #00c4e6",
" ` c #00c3e6",
" ' c #00c5e7",
" ] c #00bae3",
" [ c #00aede",
" { c #00b0df",
" } c #d6f2f9",
" | c #fcffff",
".  c #009bd6",
".. c #00a6db",
".X c #00a5da",
".o c #00bae2",
".O c #aae8f5",
".+ c #00d0ec",
".@ c #4cd4ee",
".# c #0094d3",
".$ c #00aedd",
".% c #00a2da",
".& c #4cdaf0",
".* c #d5f2f9",
".= c #00b7e1",
".- c #00b8e2",
".; c #00c3e7",
".: c #fafdfe",
".> c #80dff2",
"., c #9ae3f3",
".< c #00c7e9",
".1 c #00adde",
".2 c #4cd2ed",
".3 c #ddf4fa",
".4 c #f4fdfe",
".5 c #eafafd",
".6 c #e2f8fc",
/* pixels */
"     . X o O + @ @ @ @ @ @ @ @ @ @ @ @ @ @ @ @ @ @ + O o X .    ",
"   # $ % % % % % % % % % % % % % % % % % % % % % % % % % % $ #  ",
" & @ % % % % % % % % % % % % % % % % % % % % % % % % % % % % @ &",
" * % % % % % % % % % % % % % % % % % % % % % % % % % % % % % % *",
" = % % % % % % % % % % % % % % % % % % % % % % % % % % % % % % =",
" O % % % % % % % % - % ; : > > > > > > > > > > > > > > , - % % O",
" + % % % % % % % < 1 2 3 4 5 6 6 6 6 6 6 6 6 6 6 6 6 7 8 9 0 % +",
" @ % % % % % % - > q w                                 e r % % @",
" @ % % % % % < : t y     u u u                         i : % % @",
" @ % % % % p a s d   u u u u     f g h j j j j j j k l % 9 % % @",
" @ % % % % p r z   u u u u     x c v > > > > > > > : > s - % % @",
" @ % % % % b n m   u u u u   M N b - % % % % % % % % % % % % % @",
" @ % % % % B V     u u u u   C Z q s s s s s s q % % % % % % % @",
" @ % % % A v S   D u u u F   G H J K K K K K J % % % % % % % % @",
" @ % % % q ; L   u u u u F   P I U U U U U U Y T N % % % % % % @",
" @ % % % R - E   u u u u u F                   W Q % % % % % % @",
" @ % % % > !     u u u u u                   ~ ^ s % % % % % % @",
" @ % % % r /   u u u u     ( ) _ ` ` ` ` ` ' ] [ % % % % % % % @",
" @ % % { K }   u u u u   | b.  Q...........X a - % % % % % % % @",
" @ % % ,.o     u u u u  .O ; % p p p p p p - p % % % % % % % % @",
" @ % % 2.+     u u u u  .@.# b R R R R R R R a.$ - % % % % % % @",
" @ % %.%.&   D u u u u  .* t %.=.=.=.=.=.=.=.=.- q % % % % % % @",
" @ % % B.;     u u u u u    .:                .> > % % % % % % @",
" @ % % q 2.,                                  .< 2 % % % % % % @",
" @ % % -.1 N.2.3.4.5.5.5.5.5.5.5.5.5.5.5.5.4.6 q J % % % % % % @",
" + % % % - { : 9 < % % % % % % % % % % % % - % s % % % % % % % +",
" O % % % % % % 9 J b b b b b b b b b b b b J.1 % % % % % % % % O",
" = % % % % % % % % % % % % % % % % % % % % % % % % % % % % % % =",
" * % % % % % % % % % % % % % % % % % % % % % % % % % % % % % % *",
" & @ % % % % % % % % % % % % % % % % % % % % % % % % % % % % @ &",
"   # $ % % % % % % % % % % % % % % % % % % % % % % % % % % $ #  ",
"     . X o O + @ @ @ @ @ @ @ @ @ @ @ @ @ @ @ @ @ @ + O o X .    "
};
