/* XPM */
static char *freeimage[] = {
/* width height num_colors chars_per_pixel */
"64 64 157 2",
/* colors */
"   c #ffffff",
" . c #b6e9f6",
" X c #69d2ec",
" o c #33c2e6",
" O c #18bae2",
" + c #12b8e2",
" @ c #b3e8f5",
" # c #37c3e6",
" $ c #00b3e0",
" % c #6dd3ed",
" & c #55ccea",
" * c #6fd4ed",
" = c #6ed3ed",
" - c #c0ecf7",
" ; c #2abfe5",
" : c #c1ecf7",
" > c #68d1ec",
" , c #67d1ec",
" < c #35c2e6",
" 1 c #1abae3",
" 2 c #10b7e1",
" 3 c #00b0de",
" 4 c #00abdd",
" 5 c #00a9dc",
" 6 c #00aadc",
" 7 c #00acdd",
" 8 c #00b3e1",
" 9 c #11b8e2",
" 0 c #00b5e1",
" q c #00b1df",
" w c #00a7db",
" e c #00a5d9",
" r c #00aede",
" t c #00b9e2",
" y c #00bde3",
" u c #00bce3",
" i c #00a5da",
" p c #00a8db",
" a c #00c0e5",
" s c #75def1",
" d c #d4f2f9",
" f c #faffff",
" g c #96e5f5",
" h c #00a6da",
" j c #00addd",
" k c #00a0d9",
" l c #00bee5",
" z c #b5ebf7",
" x c #00ceeb",
" c c #00a3da",
" v c #00b5e0",
" b c #00a9db",
" n c #76dcf1",
" m c #fefefe",
" M c #feffff",
" N c #00b7e1",
" B c #bfeff9",
" V c #c1eff8",
" C c #daf4fa",
" Z c #fffefe",
" A c #60dbf0",
" S c #00a1d9",
" D c #edfcfd",
" F c #e7f9fc",
" G c #ebfafd",
" H c #f0fcfd",
" J c #f1fdfe",
" K c #00c2e6",
" L c #00a1d8",
" P c #47d9ef",
" I c #fffffe",
" U c #8fe1f2",
" Y c #00bbe3",
" T c #00b0df",
" R c #00b6e0",
" E c #00caea",
" W c #009dd7",
" Q c #00b2df",
" ! c #54daef",
" ~ c #4ad7ed",
" ^ c #009ad5",
" / c #00aedd",
" ( c #d9f5fa",
" ) c #f4fcfe",
" _ c #00bbe2",
" ` c #a9e8f6",
" ' c #00a2d9",
" ] c #00cfec",
" [ c #06d3ed",
" { c #91e5f4",
" } c #00bde4",
" | c #e6f8fc",
".  c #d8f5fa",
".. c #00afde",
".X c #00b2e0",
".o c #3fd6ee",
".O c #0096d4",
".+ c #3bd6ee",
".@ c #b7eef8",
".# c #85dff1",
".$ c #96e5f4",
".% c #9ce5f4",
".& c #8ee2f3",
".* c #acebf6",
".= c #c8f1fa",
".- c #f8fdfe",
".; c #00d2ed",
".: c #00a3d9",
".> c #00c6e8",
"., c #5ddbf0",
".< c #e2f6fb",
".1 c #00afdf",
".2 c #c6f0f8",
".3 c #00aadd",
".4 c #00b8e2",
".5 c #dff6fb",
".6 c #50d9ee",
".7 c #60ddf0",
".8 c #64ddf0",
".9 c #68def1",
".0 c #00abdc",
".q c #00ccea",
".w c #0094d3",
".e c #7ee1f3",
".r c #00c3e6",
".t c #00aedf",
".y c #dcf5fa",
".u c #f3fcfd",
".i c #a0e8f5",
".p c #00a6db",
".a c #00d3ed",
".s c #9ae7f5",
".d c #00bae2",
".f c #d8f4fa",
".g c #00b6e1",
".h c #00adde",
".j c #77def1",
".k c #009bd6",
".l c #e1f7fb",
".z c #7ae1f2",
".x c #00bfe4",
".c c #00bae3",
".v c #abeaf6",
".b c #00cbea",
".n c #c9f2f9",
".m c #aceaf7",
".M c #00b3df",
".N c #39d7ee",
".B c #00c0e6",
".V c #00c9e9",
".C c #95e5f4",
".Z c #e3f7fb",
".A c #f1fcfe",
".S c #f4fdfe",
".D c #d5f5fb",
".F c #00a7da",
".G c #17b9e2",
/* pixels */
"               . X o O + + + + + + + + + + + + + + + + + + + + + + + + + + + + + + + + + + + + + + + + + + O o X .              ",
"           @ # $ $ $ $ $ $ $ $ $ $ $ $ $ $ $ $ $ $ $ $ $ $ $ $ $ $ $ $ $ $ $ $ $ $ $ $ $ $ $ $ $ $ $ $ $ $ $ $ $ $ # @          ",
"         % $ $ $ $ $ $ $ $ $ $ $ $ $ $ $ $ $ $ $ $ $ $ $ $ $ $ $ $ $ $ $ $ $ $ $ $ $ $ $ $ $ $ $ $ $ $ $ $ $ $ $ $ $ $ %        ",
"       & $ $ $ $ $ $ $ $ $ $ $ $ $ $ $ $ $ $ $ $ $ $ $ $ $ $ $ $ $ $ $ $ $ $ $ $ $ $ $ $ $ $ $ $ $ $ $ $ $ $ $ $ $ $ $ $ &      ",
"     * $ $ $ $ $ $ $ $ $ $ $ $ $ $ $ $ $ $ $ $ $ $ $ $ $ $ $ $ $ $ $ $ $ $ $ $ $ $ $ $ $ $ $ $ $ $ $ $ $ $ $ $ $ $ $ $ $ $ =    ",
"   - $ $ $ $ $ $ $ $ $ $ $ $ $ $ $ $ $ $ $ $ $ $ $ $ $ $ $ $ $ $ $ $ $ $ $ $ $ $ $ $ $ $ $ $ $ $ $ $ $ $ $ $ $ $ $ $ $ $ $ $ -  ",
"   ; $ $ $ $ $ $ $ $ $ $ $ $ $ $ $ $ $ $ $ $ $ $ $ $ $ $ $ $ $ $ $ $ $ $ $ $ $ $ $ $ $ $ $ $ $ $ $ $ $ $ $ $ $ $ $ $ $ $ $ $ ;  ",
" : $ $ $ $ $ $ $ $ $ $ $ $ $ $ $ $ $ $ $ $ $ $ $ $ $ $ $ $ $ $ $ $ $ $ $ $ $ $ $ $ $ $ $ $ $ $ $ $ $ $ $ $ $ $ $ $ $ $ $ $ $ $ -",
" > $ $ $ $ $ $ $ $ $ $ $ $ $ $ $ $ $ $ $ $ $ $ $ $ $ $ $ $ $ $ $ $ $ $ $ $ $ $ $ $ $ $ $ $ $ $ $ $ $ $ $ $ $ $ $ $ $ $ $ $ $ $ ,",
" < $ $ $ $ $ $ $ $ $ $ $ $ $ $ $ $ $ $ $ $ $ $ $ $ $ $ $ $ $ $ $ $ $ $ $ $ $ $ $ $ $ $ $ $ $ $ $ $ $ $ $ $ $ $ $ $ $ $ $ $ $ $ <",
" 1 $ $ $ $ $ $ $ $ $ $ $ $ $ $ $ $ $ $ $ $ $ $ $ $ $ $ $ $ $ $ $ $ $ $ $ $ $ $ $ $ $ $ $ $ $ $ $ $ $ $ $ $ $ $ $ $ $ $ $ $ $ $ 1",
" 2 $ $ $ $ $ $ $ $ $ $ $ $ $ $ $ $ $ $ $ $ $ $ $ 3 4 5 6 6 6 6 6 6 6 6 6 6 6 6 6 6 6 6 6 6 6 6 6 6 6 6 6 6 6 5 7 8 $ $ $ $ $ $ 2",
" 9 $ $ $ $ $ $ $ $ $ $ $ $ $ $ $ $ $ $ $ 0 q w e r t y u u u u u u u u u u u u u u u u u u u u u u u u u u u y u $ $ $ $ $ $ $ 9",
" + $ $ $ $ $ $ $ $ $ $ $ $ $ $ $ $ $ $ $ i p a s d f                                                           g h $ $ $ $ $ $ +",
" + $ $ $ $ $ $ $ $ $ $ $ $ $ $ $ $ 0 j k l z                                                                   x c $ $ $ $ $ $ +",
" + $ $ $ $ $ $ $ $ $ $ $ $ $ $ $ v p b n       m m m m m m m m m m m m m m m m m m m m m m m m m m m m m m   M N 6 $ $ $ $ $ $ +",
" + $ $ $ $ $ $ $ $ $ $ $ $ $ $ 0 w j B     m m m m m m m m m m m m m m m m m m m m m m m m m m m m m m m m   V 6 q $ $ $ $ $ $ +",
" + $ $ $ $ $ $ $ $ $ $ $ $ $ 0 p j C   Z m m m m m m m m m m m m m                                           A S $ $ $ $ $ $ $ +",
" + $ $ $ $ $ $ $ $ $ $ $ $ $ r h B   m m m m m m m m m m m m m       D F G G G G G G G G G G G G G G G G H J K w $ $ $ $ $ $ $ +",
" + $ $ $ $ $ $ $ $ $ $ $ $ $ L P   I m m m m m m m m m m m m     U Y 0 0 0 0 0 0 0 0 0 0 0 0 0 0 0 0 0 0 v 0 T $ $ $ $ $ $ $ $ +",
" + $ $ $ $ $ $ $ $ $ $ $ $ 5 R     m m m m m m m m m m m m     E W i j j j j j j j j j j j j j j j j j j j 7 Q $ $ $ $ $ $ $ $ +",
" + $ $ $ $ $ $ $ $ $ $ $ $ S !   Z m m m m m m m m m m m     ~ ^ Q 0 $ $ $ $ $ $ $ $ $ $ $ $ $ $ $ $ $ $ $ $ $ $ $ $ $ $ $ $ $ +",
" + $ $ $ $ $ $ $ $ $ $ $ T / (   m m m m m m m m m m m m   ) T 6 $ $ $ $ $ $ $ $ $ $ $ $ $ $ $ $ $ $ $ $ $ $ $ $ $ $ $ $ $ $ $ +",
" + $ $ $ $ $ $ $ $ $ $ $ b _     m m m m m m m m m m m m   ` h $ $ $ $ $ $ $ $ $ $ $ $ $ $ $ $ $ $ $ $ $ $ $ $ $ $ $ $ $ $ $ $ +",
" + $ $ $ $ $ $ $ $ $ $ $ ' ]     m m m m m m m m m m m I   [ ' $ $ $ $ $ $ $ $ $ $ $ $ $ $ $ $ $ $ $ $ $ $ $ $ $ $ $ $ $ $ $ $ +",
" + $ $ $ $ $ $ $ $ $ $ $ i {   m m m m m m m m m m m m     } p $ $ $ $ $ $ $ $ $ $ $ $ $ $ $ $ $ $ $ $ $ $ $ $ $ $ $ $ $ $ $ $ +",
" + $ $ $ $ $ $ $ $ $ $ r q |   m m m m m m m m m m m m  .  r...X.X.X.X.X.X.X.X.X.X.X.X.X.X.X.X $ $ $ $ $ $ $ $ $ $ $ $ $ $ $ $ +",
" + $ $ $ $ $ $ $ $ $ $ w a     m m m m m m m m m m m Z  .o.O p w w w w w w w w w w w w w w w 6 8 $ $ $ $ $ $ $ $ $ $ $ $ $ $ $ +",
" + $ $ $ $ $ $ $ $ $ $ '.+   I m m m m m m m m m m m Z  .@.#.$.$.$.$.$.$.$.$.$.$.$.$.$.$.$.%.& $.. $ $ $ $ $ $ $ $ $ $ $ $ $ $ +",
" + $ $ $ $ $ $ $ $ $.X w.*   m m m m m m m m m m m m m m                                    .= w Q $ $ $ $ $ $ $ $ $ $ $ $ $ $ +",
" + $ $ $ $ $ $ $ $ $ 7 0.-   m m m m m m m m m m m m m m m m m m m m m m m m m m m m m m Z  .;.: $ $ $ $ $ $ $ $ $ $ $ $ $ $ $ +",
" + $ $ $ $ $ $ $ $ $ i.>     m m m m m m m m m m m m m m m m m m m m m m m m m m m m m m     } p $ $ $ $ $ $ $ $ $ $ $ $ $ $ $ +",
" + $ $ $ $ $ $ $ $ $.:.,   Z m m m m m m m m m m m m m m m m m m m m m m m m m m m m m m  .<.1.. $ $ $ $ $ $ $ $ $ $ $ $ $ $ $ +",
" + $ $ $ $ $ $ $ $ q 4.2   m m m m m m m m m m m m m                                      .$ S $ $ $ $ $ $ $ $ $ $ $ $ $ $ $ $ +",
" + $ $ $ $ $ $ $ $.3.4     m m m m m m m m m m m m  .5.6.7.8.8.8.8.8.8.8.8.8.8.8.8.8.8.8.9 K.0 $ $ $ $ $ $ $ $ $ $ $ $ $ $ $ $ +",
" + $ $ $ $ $ $ $ $ c.q     m m m m m m m m m m m Z   P.w i i i i i i i i i i i i i i i i i 7 0 $ $ $ $ $ $ $ $ $ $ $ $ $ $ $ $ +",
" + $ $ $ $ $ $ $ $.:.e   m m m m m m m m m m m m    .r h $ $ $ $ $ $ $ $ $ $ $ $ $ $ $ $ $ $ $ $ $ $ $ $ $ $ $ $ $ $ $ $ $ $ $ +",
" + $ $ $ $ $ $ $...t.y   m m m m m m m m m m m m  .u $ j $ $ $ $ $ $ $ $ $ $ $ $ $ $ $ $ $ $ $ $ $ $ $ $ $ $ $ $ $ $ $ $ $ $ $ +",
" + $ $ $ $ $ $ $ p }     m m m m m m m m m m m m  .i.p.X $ $ $ $ $ $ $ $ $ $ $ $ $ $ $ $ $ $ $ $ $ $ $ $ $ $ $ $ $ $ $ $ $ $ $ +",
" + $ $ $ $ $ $ $ '.a   I m m m m m m m m m m m I  .; ' $ $ $ $ $ $ $ $ $ $ $ $ $ $ $ $ $ $ $ $ $ $ $ $ $ $ $ $ $ $ $ $ $ $ $ $ +",
" + $ $ $ $ $ $ $ w.s   m m m m m m m m m m m m    .d 5 $ $ $ $ $ $ $ $ $ $ $ $ $ $ $ $ $ $ $ $ $ $ $ $ $ $ $ $ $ $ $ $ $ $ $ $ +",
" + $ $ $ $ $ $.. q.f   m m m m m m m m m m m m    .g.p v $ $ $ $ $ $ $ $ $ $ $ $ $ $ $ $ $ $ $ $ $ $ $ $ $ $ $ $ $ $ $ $ $ $ $ +",
" + $ $ $ $ $ $.h 8 F   m m m m m m m m m m m m I  .j.k.: p p p p p p p p p p p p p p p p p p w.. 0 $ $ $ $ $ $ $ $ $ $ $ $ $ $ +",
" + $ $ $ $ $ $ r.X.l   m m m m m m m m m m m m m    .z u }.x.x.x.x.x.x.x.x.x.x.x.x.x.x.x.x.x a.c T $ $ $ $ $ $ $ $ $ $ $ $ $ $ +",
" + $ $ $ $ $ $ Q w.v   m m m m m m m m m m m m m m                                            .b i $ $ $ $ $ $ $ $ $ $ $ $ $ $ +",
" + $ $ $ $ $ $ $ c.q     m m m m m m m m m m m m m m Z                                         v 7 $ $ $ $ $ $ $ $ $ $ $ $ $ $ +",
" + $ $ $ $ $ $ $ T w.n   m m m m m m m m m m m m m m m m m m m m m m m m m m m m m m m m m  .m p.X $ $ $ $ $ $ $ $ $ $ $ $ $ $ +",
" + $ $ $ $ $ $ $ 0 p.M F     m m m m m m m m m m m m m m m m m m m m m m m m m m m m m m I  .N ' $ $ $ $ $ $ $ $ $ $ $ $ $ $ $ +",
" + $ $ $ $ $ $ $ $ 0 h $ z                                                                  .B.p $ $ $ $ $ $ $ $ $ $ $ $ $ $ $ +",
" + $ $ $ $ $ $ $ $ $ 0 p b.V.C.Z.A G G G G G G G G G G G G G G G G G G G G G G G G G G G.S.D Q.h $ $ $ $ $ $ $ $ $ $ $ $ $ $ $ +",
" + $ $ $ $ $ $ $ $ $ $ 0 T i.F.X 0 0 0 0 0 0 0 0 0 0 0 0 0 0 0 0 0 0 0 0 0 0 0 0 0 0 0 0.g $ q $ $ $ $ $ $ $ $ $ $ $ $ $ $ $ $ +",
" 9 $ $ $ $ $ $ $ $ $ $ $ $ $.X r 7 j j j j j j j j j j j j j j j j j j j j j j j j j j j 7 r $ $ $ $ $ $ $ $ $ $ $ $ $ $ $ $ $ 9",
" 2 $ $ $ $ $ $ $ $ $ $ $ $ $ $ $ $ $ $ $ $ $ $ $ $ $ $ $ $ $ $ $ $ $ $ $ $ $ $ $ $ $ $ $ $ $ $ $ $ $ $ $ $ $ $ $ $ $ $ $ $ $ $ 2",
" 1 $ $ $ $ $ $ $ $ $ $ $ $ $ $ $ $ $ $ $ $ $ $ $ $ $ $ $ $ $ $ $ $ $ $ $ $ $ $ $ $ $ $ $ $ $ $ $ $ $ $ $ $ $ $ $ $ $ $ $ $ $ $ 1",
" < $ $ $ $ $ $ $ $ $ $ $ $ $ $ $ $ $ $ $ $ $ $ $ $ $ $ $ $ $ $ $ $ $ $ $ $ $ $ $ $ $ $ $ $ $ $ $ $ $ $ $ $ $ $ $ $ $ $ $ $ $ $ <",
" , $ $ $ $ $ $ $ $ $ $ $ $ $ $ $ $ $ $ $ $ $ $ $ $ $ $ $ $ $ $ $ $ $ $ $ $ $ $ $ $ $ $ $ $ $ $ $ $ $ $ $ $ $ $ $ $ $ $ $ $ $ $ ,",
" - $ $ $ $ $ $ $ $ $ $ $ $ $ $ $ $ $ $ $ $ $ $ $ $ $ $ $ $ $ $ $ $ $ $ $ $ $ $ $ $ $ $ $ $ $ $ $ $ $ $ $ $ $ $ $ $ $ $ $ $ $ $ -",
"   ; $ $ $ $ $ $ $ $ $ $ $ $ $ $ $ $ $ $ $ $ $ $ $ $ $ $ $ $ $ $ $ $ $ $ $ $ $ $ $ $ $ $ $ $ $ $ $ $ $ $ $ $ $ $ $ $ $ $ $ $ ;  ",
"   - $ $ $ $ $ $ $ $ $ $ $ $ $ $ $ $ $ $ $ $ $ $ $ $ $ $ $ $ $ $ $ $ $ $ $ $ $ $ $ $ $ $ $ $ $ $ $ $ $ $ $ $ $ $ $ $ $ $ $ $ -  ",
"     = $ $ $ $ $ $ $ $ $ $ $ $ $ $ $ $ $ $ $ $ $ $ $ $ $ $ $ $ $ $ $ $ $ $ $ $ $ $ $ $ $ $ $ $ $ $ $ $ $ $ $ $ $ $ $ $ $ $ =    ",
"       & $ $ $ $ $ $ $ $ $ $ $ $ $ $ $ $ $ $ $ $ $ $ $ $ $ $ $ $ $ $ $ $ $ $ $ $ $ $ $ $ $ $ $ $ $ $ $ $ $ $ $ $ $ $ $ $ &      ",
"         % $ $ $ $ $ $ $ $ $ $ $ $ $ $ $ $ $ $ $ $ $ $ $ $ $ $ $ $ $ $ $ $ $ $ $ $ $ $ $ $ $ $ $ $ $ $ $ $ $ $ $ $ $ $ %        ",
"           @ # $ $ $ $ $ $ $ $ $ $ $ $ $ $ $ $ $ $ $ $ $ $ $ $ $ $ $ $ $ $ $ $ $ $ $ $ $ $ $ $ $ $ $ $ $ $ $ $ $ $ # @          ",
"               . X o.G 2 + + + + + + + + + + + + + + + + + + + + + + + + + + + + + + + + + + + + + + + + 2.G o X .              "
};
